<?xml version="1.0" encoding="utf-8"?>
<!-- Generator: Adobe Illustrator 22.0.1, SVG Export Plug-In . SVG Version: 6.00 Build 0)  -->
<svg version="1.1" id="Capa_1" xmlns="http://www.w3.org/2000/svg" xmlns:xlink="http://www.w3.org/1999/xlink" x="0px" y="0px"
	 viewBox="0 0 96 96" style="enable-background:new 0 0 96 96;" xml:space="preserve">
<style type="text/css">
	.st0{fill:#D0D1D3;}
</style>
<g>
	<path class="st0" d="M48,0C21.5,0,0,21.5,0,48c0,26.5,21.5,48,48,48c26.5,0,48-21.5,48-48C96,21.5,74.5,0,48,0z M51.3,59.4
		c-3.1-0.2-4.4-1.8-6.8-3.2c-1.3,7-2.9,13.6-7.7,17.1c-1.5-10.5,2.2-18.4,3.9-26.8c-2.9-4.9,0.3-14.7,6.5-12.3
		c7.5,3-6.5,18.1,2.9,20c9.8,2,13.8-17.1,7.7-23.2c-8.8-8.9-25.6-0.2-23.6,12.6c0.5,3.1,3.7,4.1,1.3,8.4c-5.6-1.2-7.3-5.7-7.1-11.6
		c0.3-9.7,8.7-16.5,17.1-17.4c10.6-1.2,20.6,3.9,22,13.9C69,48.1,62.6,60.3,51.3,59.4z"/>
</g>
</svg>
