<?xml version="1.0" encoding="utf-8"?>
<!-- Generator: Adobe Illustrator 22.0.1, SVG Export Plug-In . SVG Version: 6.00 Build 0)  -->
<svg version="1.1" id="Capa_1" xmlns="http://www.w3.org/2000/svg" xmlns:xlink="http://www.w3.org/1999/xlink" x="0px" y="0px"
	 viewBox="0 0 512 512" style="enable-background:new 0 0 512 512;" xml:space="preserve">
<style type="text/css">
	.st0{fill:#4C4C4C;}
</style>
<g>
	<path class="st0" d="M262,113.4c-0.8-0.8-1.7-1.4-2.8-1.8c-2.1-0.9-4.4-0.9-6.5,0c-1,0.4-2,1.1-2.8,1.8L130.5,232.9
		c-3.3,3.3-3.3,8.7,0,12.1c3.3,3.3,8.7,3.3,12.1,0l104.9-104.9v252.5c0,4.7,3.8,8.5,8.5,8.5c4.7,0,8.5-3.8,8.5-8.5V140.1L369.4,245
		c1.7,1.7,3.9,2.5,6,2.5s4.4-0.8,6-2.5c3.3-3.3,3.3-8.7,0-12.1L262,113.4z"/>
	<path class="st0" d="M256,410.1c-9.7,0-17.5-7.9-17.5-17.5V161.8l-89.5,89.5c-3.3,3.3-7.7,5.1-12.4,5.1c-4.7,0-9.1-1.8-12.4-5.1
		c-6.8-6.8-6.8-18,0-24.8l119.5-119.5c1.6-1.6,3.5-2.9,5.7-3.8c4.3-1.8,9.2-1.8,13.4,0c2.2,0.9,4.1,2.2,5.7,3.8l119.5,119.5
		c6.8,6.8,6.8,18,0,24.8c-3.3,3.3-7.7,5.1-12.4,5.1c-4.7,0-9.1-1.8-12.4-5.1l-89.5-89.5v230.7C273.5,402.2,265.7,410.1,256,410.1z"
		/>
</g>
</svg>
